# xmcd
#
# Track frame offsets: 
#        150
#        6300
#        18752
#        29405
#        43320
#        56952
#        68002
#        83250
#        102075
#        116150
#        126075
#        137655
#        150712
#
# Disc length: 2224 seconds
#
# Revision: 0
# Processed by: cddbd v1.5PL3 Copyright (c) Steve Scherf et al.
# Submitted via: ExactAudioCopy v0.95a3
#
DISCID=a608ae0d
DTITLE=LAUGHIN'NOSE - Go For It
DYEAR=1900
DGENRE=
TTITLE0=Ya-Ya-Ya-
TTITLE1=Go For It
TTITLE2=Both Side Flowers
TTITLE3=Turn Rider
TTITLE4=Punk It Up
TTITLE5=(Don't) Black Obey
TTITLE6=Hot Blood
TTITLE7=Deadly Life
TTITLE8=Strange Boy Ya
TTITLE9=Fire Borin'
TTITLE10=Iroiroare
TTITLE11=Crannie Run Run
TTITLE12=Crash Street Boogie
EXTD=
EXTT0=
EXTT1=
EXTT2=
EXTT3=
EXTT4=
EXTT5=
EXTT6=
EXTT7=
EXTT8=
EXTT9=
EXTT10=
EXTT11=
EXTT12=
PLAYORDER=
